<svg class="animated" id="freepik_stories-fitness-tracker" xmlns="http://www.w3.org/2000/svg" viewBox="0 0 500 500" version="1.1" xmlns:xlink="http://www.w3.org/1999/xlink" xmlns:svgjs="http://svgjs.com/svgjs"><style>svg#freepik_stories-fitness-tracker:not(.animated) .animable {opacity: 0;}svg#freepik_stories-fitness-tracker.animated #freepik--Floor--inject-70 {animation: 1s 1 forwards cubic-bezier(.36,-0.01,.5,1.38) fadeIn,6s Infinite  linear floating;animation-delay: 0s,1s;}svg#freepik_stories-fitness-tracker.animated #freepik--Window--inject-70 {animation: 1.5s 1 forwards cubic-bezier(.36,-0.01,.5,1.38) lightSpeedRight,6s Infinite  linear floating;animation-delay: 0s,1.5s;}svg#freepik_stories-fitness-tracker.animated #freepik--Shadows--inject-70 {animation: 1s 1 forwards cubic-bezier(.36,-0.01,.5,1.38) slideDown;animation-delay: 0s;}svg#freepik_stories-fitness-tracker.animated #freepik--Pictures--inject-70 {animation: 1.5s 1 forwards cubic-bezier(.36,-0.01,.5,1.38) lightSpeedLeft,6s Infinite  linear floating;animation-delay: 0s,1.5s;}svg#freepik_stories-fitness-tracker.animated #freepik--Charts--inject-70 {animation: 1.5s 1 forwards cubic-bezier(.36,-0.01,.5,1.38) lightSpeedRight,6s Infinite  linear floating;animation-delay: 0s,1.5s;}svg#freepik_stories-fitness-tracker.animated #freepik--Device--inject-70 {animation: 1.5s 1 forwards cubic-bezier(.36,-0.01,.5,1.38) lightSpeedLeft,6s Infinite  linear floating;animation-delay: 0s,1.5s;}svg#freepik_stories-fitness-tracker.animated #freepik--Treadmill--inject-70 {animation: 1.5s 1 forwards cubic-bezier(.36,-0.01,.5,1.38) slideUp,6s Infinite  linear floating;animation-delay: 0s,1.5s;}svg#freepik_stories-fitness-tracker.animated #freepik--Character--inject-70 {animation: 1.5s 1 forwards cubic-bezier(.36,-0.01,.5,1.38) slideRight,1.5s Infinite  linear wind;animation-delay: 0s,1.5s;}            @keyframes fadeIn {                0% {                    opacity: 0;                }                100% {                    opacity: 1;                }            }                    @keyframes floating {                0% {                    opacity: 1;                    transform: translateY(0px);                }                50% {                    transform: translateY(-10px);                }                100% {                    opacity: 1;                    transform: translateY(0px);                }            }                    @keyframes lightSpeedRight {              from {                transform: translate3d(50%, 0, 0) skewX(-20deg);                opacity: 0;              }              60% {                transform: skewX(10deg);                opacity: 1;              }              80% {                transform: skewX(-2deg);              }              to {                opacity: 1;                transform: translate3d(0, 0, 0);              }            }                    @keyframes slideDown {                0% {                    opacity: 0;                    transform: translateY(-30px);                }                100% {                    opacity: 1;                    transform: translateY(0);                }            }                    @keyframes lightSpeedLeft {              from {                transform: translate3d(-50%, 0, 0) skewX(20deg);                opacity: 0;              }              60% {                transform: skewX(-10deg);                opacity: 1;              }              80% {                transform: skewX(2deg);              }              to {                opacity: 1;                transform: translate3d(0, 0, 0);              }            }                    @keyframes slideUp {                0% {                    opacity: 0;                    transform: translateY(30px);                }                100% {                    opacity: 1;                    transform: inherit;                }            }                    @keyframes slideRight {                0% {                    opacity: 0;                    transform: translateX(30px);                }                100% {                    opacity: 1;                    transform: translateX(0);                }            }                    @keyframes wind {                0% {                    transform: rotate( 0deg );                }                25% {                    transform: rotate( 1deg );                }                75% {                    transform: rotate( -1deg );                }            }        </style><g id="freepik--Floor--inject-70" class="animable animator-active" style="transform-origin: 249.997px 357.895px;"><path d="M404.91,269.55c86.12,48.8,86.58,127.91,1,176.7S181.2,495,95.08,446.25s-86.57-127.9-1-176.69S318.8,220.76,404.91,269.55Z" style="fill: rgb(245, 245, 245); transform-origin: 249.997px 357.895px;" id="el9qanevpas57" class="animable"></path></g><g id="freepik--Window--inject-70" class="animable" style="transform-origin: 387.335px 130.215px;"><polygon points="321.69 49.23 326.1 46.67 325.84 137.8 321.44 140.37 321.69 49.23" style="fill: rgb(240, 240, 240); transform-origin: 323.77px 93.52px;" id="ele9gpisqy5al" class="animable"></polygon><polygon points="321.44 140.37 325.84 137.8 452.98 211.2 448.57 213.76 321.44 140.37" style="fill: rgb(245, 245, 245); transform-origin: 387.21px 175.78px;" id="elch4as9hb39f" class="animable"></polygon><path d="M316.64,40.48l137.27,79.25-.29,102.79L316.35,143.26ZM448.57,213.76l.26-91.13L321.69,49.23l-.25,91.13,127.13,73.4" style="fill: rgb(224, 224, 224); transform-origin: 385.13px 131.5px;" id="elt7zmb8b3uh" class="animable"></path><polygon points="316.64 40.48 321.05 37.91 458.32 117.17 453.91 119.73 316.64 40.48" style="fill: rgb(245, 245, 245); transform-origin: 387.48px 78.82px;" id="eljg7gc2kgt0n" class="animable"></polygon><polygon points="453.91 119.73 458.32 117.17 458.03 219.96 453.62 222.52 453.91 119.73" style="fill: rgb(240, 240, 240); transform-origin: 455.97px 169.845px;" id="elsnxv4m3xhkd" class="animable"></polygon><polygon points="382.72 84.47 382.46 175.6 387.53 178.53 387.79 87.39 382.72 84.47" style="fill: rgb(224, 224, 224); transform-origin: 385.125px 131.5px;" id="el5vku5hbiuk" class="animable"></polygon><polygon points="387.79 87.39 387.79 87.39 387.53 178.53 391.94 175.97 392.19 89.93 387.79 87.39" style="fill: rgb(240, 240, 240); transform-origin: 389.86px 132.96px;" id="ellbrrkc9qsf" class="animable"></polygon><g id="el1lp8a8jv1jj"><rect x="385.26" y="83" height="5.86" style="fill: rgb(224, 224, 224); transform-origin: 385.26px 85.93px; transform: rotate(-60deg);" class="animable" id="elw9bwh5kaxyr"></rect></g><g id="el1vfdo9jx3js"><polygon points="387.79 91.49 387.8 87.39 382.73 84.47 382.71 88.56 387.79 91.49 387.79 91.49" style="opacity: 0.2; transform-origin: 385.255px 87.98px;" class="animable" id="elqp5ra9t63a"></polygon></g><g id="ell9u1k07gmbk"><polygon points="387.78 91.49 391.34 89.44 387.79 87.39 387.79 87.39 387.78 91.49" style="opacity: 0.2; transform-origin: 389.56px 89.44px;" class="animable" id="el3rwsilmc1qg"></polygon></g></g><g id="freepik--Shadows--inject-70" class="animable" style="transform-origin: 247.625px 354.19px;"><path d="M108.35,327c-2.83,1.64-2.85,4.29,0,5.92l10.13,5.89a11.28,11.28,0,0,0,10.23,0l122.13-70.95c2.83-1.63,2.86-4.29,0-5.93l-10.14-5.89a11.28,11.28,0,0,0-10.23,0Z" style="fill: rgb(230, 230, 230); transform-origin: 179.597px 297.425px;" id="elxvns3gi6njs" class="animable"></path><path d="M125.49,400l90.27,52.45a8.25,8.25,0,0,0,8.29,0L388,357.83a2.07,2.07,0,0,0,0-3.58l-89-51.72a8.27,8.27,0,0,0-8.24,0L125.51,396.43A2.07,2.07,0,0,0,125.49,400Z" style="fill: rgb(230, 230, 230); transform-origin: 256.754px 377.499px;" id="elu99ecavz6fd" class="animable"></path></g><g id="freepik--Pictures--inject-70" class="animable" style="transform-origin: 72.485px 129.69px;"><polygon points="86.85 87.43 58.05 104.06 58.12 126.07 86.92 109.44 86.85 87.43" style="fill: none; transform-origin: 72.485px 106.75px;" id="el0ls79ouplmtb" class="animable"></polygon><polygon points="86.85 87.43 86.92 109.44 89.58 110.99 89.51 85.9 86.85 87.43" style="fill: rgb(240, 240, 240); transform-origin: 88.215px 98.445px;" id="el7e1n2fjt11q" class="animable"></polygon><polygon points="58.12 126.07 58.13 129.15 89.58 110.99 86.92 109.44 58.12 126.07" style="fill: rgb(245, 245, 245); transform-origin: 73.85px 119.295px;" id="el2epszdtr1o7" class="animable"></polygon><path d="M92.72,80.34l-37.9,21.88.09,32.5,37.91-21.88Zm-34.6,48.81v-3.08l-.07-22,28.8-16.63,2.66-1.53L89.58,111Z" style="fill: rgb(224, 224, 224); transform-origin: 73.82px 107.53px;" id="eld9ma1nh70ye" class="animable"></path><polygon points="92.72 80.34 90.06 78.79 52.15 100.67 54.82 102.22 92.72 80.34" style="fill: rgb(245, 245, 245); transform-origin: 72.435px 90.505px;" id="elszse1baoym" class="animable"></polygon><polygon points="52.15 100.67 52.24 133.17 54.91 134.72 54.82 102.22 52.15 100.67" style="fill: rgb(240, 240, 240); transform-origin: 53.53px 117.695px;" id="el7x89nqxfinj" class="animable"></polygon><polygon points="86.85 133.3 58.05 149.93 58.12 171.94 86.92 155.31 86.85 133.3" style="fill: none; transform-origin: 72.485px 152.62px;" id="elekj6mznaos5" class="animable"></polygon><polygon points="86.85 133.3 86.92 155.31 89.58 156.86 89.51 131.76 86.85 133.3" style="fill: rgb(240, 240, 240); transform-origin: 88.215px 144.31px;" id="elfc05x4uixwh" class="animable"></polygon><polygon points="58.12 171.94 58.13 175.02 89.58 156.86 86.92 155.31 58.12 171.94" style="fill: rgb(245, 245, 245); transform-origin: 73.85px 165.165px;" id="el95w7obtoj65" class="animable"></polygon><path d="M92.72,126.2l-37.9,21.89.09,32.5L92.82,158.7ZM58.12,175v-3.09l-.07-22,28.8-16.62,2.66-1.54.07,25.1Z" style="fill: rgb(224, 224, 224); transform-origin: 73.82px 153.395px;" id="elw77it005hub" class="animable"></path><polygon points="92.72 126.2 90.06 124.65 52.15 146.54 54.82 148.09 92.72 126.2" style="fill: rgb(245, 245, 245); transform-origin: 72.435px 136.37px;" id="eluvixrh4ua8" class="animable"></polygon><polygon points="52.15 146.54 52.24 179.03 54.91 180.59 54.82 148.09 52.15 146.54" style="fill: rgb(240, 240, 240); transform-origin: 53.53px 163.565px;" id="el6693fezx97n" class="animable"></polygon><polygon points="77.7 95.79 85.56 101.97 85.57 108.01 59.45 123.09 59.43 117.05 64.41 107.17 68.88 110.64 67.3 115.55 69.6 111.19 77.7 95.79" style="fill: rgb(224, 224, 224); transform-origin: 72.5px 109.44px;" id="els8rk2usyg9" class="animable"></polygon><path d="M69.12,98.83c1.23-.71,2.23-.14,2.24,1.28A4.9,4.9,0,0,1,69.14,104c-1.23.71-2.23.14-2.24-1.27A4.9,4.9,0,0,1,69.12,98.83Z" style="fill: rgb(224, 224, 224); transform-origin: 69.13px 101.415px;" id="el7t7nf7laoma" class="animable"></path><polygon points="77.7 141.66 85.56 147.84 85.57 153.88 59.45 168.96 59.43 162.92 64.41 153.03 68.88 156.5 67.3 161.41 69.6 157.05 77.7 141.66" style="fill: rgb(224, 224, 224); transform-origin: 72.5px 155.31px;" id="ely8xlmgbhef" class="animable"></polygon><path d="M69.12,144.7c1.23-.71,2.23-.14,2.24,1.27a4.9,4.9,0,0,1-2.22,3.85c-1.23.71-2.23.14-2.24-1.28A4.9,4.9,0,0,1,69.12,144.7Z" style="fill: rgb(224, 224, 224); transform-origin: 69.13px 147.26px;" id="elipag0nf1opc" class="animable"></path></g><g id="freepik--Charts--inject-70" class="animable" style="transform-origin: 380.775px 188.476px;"><polygon points="397.11 279.36 397.1 282.77 340.96 250.35 340.97 246.94 397.11 279.36" style="fill: #8A2BE2; transform-origin: 369.035px 264.855px;" id="elrztvb7821vc" class="animable"></polygon><polygon points="377.11 273.24 377.1 276.65 340.94 255.77 340.95 252.36 377.11 273.24" style="fill: #8A2BE2; transform-origin: 359.025px 264.505px;" id="elhnwuzatl54" class="animable"></polygon><path d="M360.71,225.93a5.43,5.43,0,0,1,1.53,1.32c1.78,2.13,2.22,5,2.46,7.49.34,3.45.69,6.9,1,10.35a23.69,23.69,0,0,0,1,5.34,10.56,10.56,0,0,0,3.15,4.86,4.22,4.22,0,0,0,.54.36,3.14,3.14,0,0,0,3.49,0,9.26,9.26,0,0,0,2.3-3.23,7.92,7.92,0,0,1,3.07-3.49,4.55,4.55,0,0,1,4.29.36,6.85,6.85,0,0,1,.76.52c2.91,2.23,4.63,6.61,6,10.41s3.12,8.21,6.05,10.34a7,7,0,0,0,.6.4,4.93,4.93,0,0,0,5.75-.47c1.61-1.23,2.91-3,4.92-3.54a4.87,4.87,0,0,1,3.14.44l0,16.6L341,243.74l.08-27.59a23.65,23.65,0,0,1,2.74,7.29c.6,3.32.46,6.93,2.7,9.86a6.81,6.81,0,0,0,2,1.76,4,4,0,0,0,2.83.56c1.38-.36,2.25-1.65,2.82-3.17.77-2,1.12-4.5,2.34-6A3.23,3.23,0,0,1,360.71,225.93Z" style="fill: #8A2BE2; transform-origin: 375.88px 250.07px;" id="elhqrd1pd9oo8" class="animable"></path><g id="eljpy7gsm399p"><path d="M360.71,225.93a5.43,5.43,0,0,1,1.53,1.32c1.78,2.13,2.22,5,2.46,7.49.34,3.45.69,6.9,1,10.35a23.69,23.69,0,0,0,1,5.34,10.56,10.56,0,0,0,3.15,4.86,4.22,4.22,0,0,0,.54.36,3.14,3.14,0,0,0,3.49,0,9.26,9.26,0,0,0,2.3-3.23,7.92,7.92,0,0,1,3.07-3.49,4.55,4.55,0,0,1,4.29.36,6.85,6.85,0,0,1,.76.52c2.91,2.23,4.63,6.61,6,10.41s3.12,8.21,6.05,10.34a7,7,0,0,0,.6.4,4.93,4.93,0,0,0,5.75-.47c1.61-1.23,2.91-3,4.92-3.54a4.87,4.87,0,0,1,3.14.44l0,16.6L341,243.74l.08-27.59a23.65,23.65,0,0,1,2.74,7.29c.6,3.32.46,6.93,2.7,9.86a6.81,6.81,0,0,0,2,1.76,4,4,0,0,0,2.83.56c1.38-.36,2.25-1.65,2.82-3.17.77-2,1.12-4.5,2.34-6A3.23,3.23,0,0,1,360.71,225.93Z" style="fill: rgb(255, 255, 255); opacity: 0.4; transform-origin: 375.88px 250.07px;" class="animable" id="elfoa16fpjhpe"></path></g><path d="M421.8,138.77,343.15,93.36a2.26,2.26,0,0,0-2.06-.26v0l-.06,0-.12.07L337.73,95l-.07,0-.05,0a2.23,2.23,0,0,0-.83,1.93l-.06,21.2a6.78,6.78,0,0,0,3.08,5.34L418.45,169a2.18,2.18,0,0,0,2.21.21h0l3.24-1.87,0,0,0,0h0a2.23,2.23,0,0,0,.87-2l.06-21.2A6.83,6.83,0,0,0,421.8,138.77Z" style="fill: #8A2BE2; transform-origin: 380.775px 131.189px;" id="elwl03fex8hk" class="animable"></path><g id="elx24expr06"><path d="M421.8,138.77,343.15,93.36a2.26,2.26,0,0,0-2.06-.26v0l-.06,0-.12.07L337.73,95a2.2,2.2,0,0,1,2.15.23l78.65,45.41a6.79,6.79,0,0,1,2.73,3.51l3.28-1.87A6.77,6.77,0,0,0,421.8,138.77Z" style="fill: rgb(255, 255, 255); opacity: 0.3; transform-origin: 381.135px 118.556px;" class="animable" id="el4jjjx7w95wr"></path></g><g id="elmrhrt92211p"><path d="M421.26,144.17a5.29,5.29,0,0,1,.35,1.83l-.06,21.21a2.17,2.17,0,0,1-.89,2h0l3.24-1.87,0,0,0,0h0a2.23,2.23,0,0,0,.87-2l.06-21.2a5.43,5.43,0,0,0-.35-1.82Z" style="opacity: 0.2; transform-origin: 422.745px 155.765px;" class="animable" id="el5grlav5sr34"></path></g><path d="M358.76,114.41c1.71,3,1.85,6.15.43,7.51l-5.62-3.24-.39-3.4a.73.73,0,0,0-.3-.49c-.16-.09-.29,0-.31.13l-.82,5-1.06-8a.73.73,0,0,0-.31-.48.18.18,0,0,0-.3.13l-.77,5.49-.77-4.12a.73.73,0,0,0-.3-.45c-.15-.08-.27,0-.3.09l-.7,2.43-4.59-2.65c-1.41-3-1.25-6,.48-7a3.44,3.44,0,0,1,3.43.35,9.83,9.83,0,0,1,3.41,3.6l1,1.68,1-.56a3.45,3.45,0,0,1,3.42.35A9.85,9.85,0,0,1,358.76,114.41Zm-5.91,3-.8,4.92c0,.15-.15.2-.3.11a.66.66,0,0,1-.31-.47l-1-7.88-.71,5.08c0,.16-.15.21-.31.14a.68.68,0,0,1-.3-.46l-.87-4.63-.43,1.53c0,.13-.16.17-.3.09l-4.28-2.47.88,1.53,6.82,11.81,6.86-3.92.88-.5-5.33-3.08a.69.69,0,0,1-.31-.48Z" style="fill: #8A2BE2; transform-origin: 350.929px 115.883px;" id="el1co4lfieqzm" class="animable"></path><path d="M350.38,111.45a.73.73,0,0,1,.31.48l1.06,8,.82-5c0-.16.15-.22.31-.13a.73.73,0,0,1,.3.49l.39,3.4,5.62,3.24,3.19,1.84a.69.69,0,0,1,.31.54c0,.19-.14.27-.32.17l-3.73-2.15-5.33-3.08a.69.69,0,0,1-.31-.48l-.15-1.32-.8,4.92c0,.15-.15.2-.3.11a.66.66,0,0,1-.31-.47l-1-7.88-.71,5.08a.18.18,0,0,1-.29.14.64.64,0,0,1-.32-.46l-.87-4.63-.43,1.53c0,.13-.16.17-.3.09l-4.28-2.47-3.73-2.16a.66.66,0,0,1-.31-.52c0-.2.14-.28.31-.19l3.18,1.84,4.59,2.65.7-2.43c0-.13.15-.17.28-.1a.73.73,0,0,1,.32.46l.77,4.12.77-5.49A.18.18,0,0,1,350.38,111.45Z" style="fill: rgb(255, 255, 255); transform-origin: 350.945px 117.513px;" id="elwz0yd12haw8" class="animable"></path><g id="el6zr6rfolvoq"><path d="M358.76,114.41c1.71,3,1.85,6.15.43,7.51l-5.62-3.24-.39-3.4a.73.73,0,0,0-.3-.49c-.16-.09-.29,0-.31.13l-.82,5-1.06-8a.73.73,0,0,0-.31-.48.18.18,0,0,0-.3.13l-.77,5.49-.77-4.12a.73.73,0,0,0-.3-.45c-.15-.08-.27,0-.3.09l-.7,2.43-4.59-2.65c-1.41-3-1.25-6,.48-7a3.44,3.44,0,0,1,3.43.35,9.83,9.83,0,0,1,3.41,3.6l1,1.68,1-.56a3.45,3.45,0,0,1,3.42.35A9.85,9.85,0,0,1,358.76,114.41Zm-5.91,3-.8,4.92c0,.15-.15.2-.3.11a.66.66,0,0,1-.31-.47l-1-7.88-.71,5.08c0,.16-.15.21-.31.14a.68.68,0,0,1-.3-.46l-.87-4.63-.43,1.53c0,.13-.16.17-.3.09l-4.28-2.47.88,1.53,6.82,11.81,6.86-3.92.88-.5-5.33-3.08a.69.69,0,0,1-.31-.48Z" style="fill: rgb(255, 255, 255); opacity: 0.4; transform-origin: 350.929px 115.883px;" class="animable" id="el5e2zq08upph"></path></g><polygon points="405.6 153.57 405.59 157.07 364.82 133.53 364.83 130.03 405.6 153.57" style="fill: rgb(255, 255, 255); transform-origin: 385.21px 143.55px;" id="el4xywxrpcxlb" class="animable"></polygon><polygon points="413.45 151.23 413.44 154.74 364.84 126.68 364.85 123.17 413.45 151.23" style="fill: rgb(255, 255, 255); transform-origin: 389.145px 138.955px;" id="elnszbmc5ygn" class="animable"></polygon><polygon points="381.57 125.95 381.56 129.45 364.86 119.81 364.87 116.31 381.57 125.95" style="fill: rgb(255, 255, 255); transform-origin: 373.215px 122.88px;" id="elqp0xeh8aaza" class="animable"></polygon><path d="M421.8,180.11,343.15,134.7a2.26,2.26,0,0,0-2.06-.26v0l-.06,0-.12.07-3.18,1.83-.07,0-.05,0a2.23,2.23,0,0,0-.83,1.93l-.06,21.2a6.78,6.78,0,0,0,3.08,5.34l78.65,45.41a2.18,2.18,0,0,0,2.21.21h0l3.24-1.87,0,0,0,0h0a2.2,2.2,0,0,0,.87-2l.06-21.21A6.82,6.82,0,0,0,421.8,180.11Z" style="fill: #8A2BE2; transform-origin: 380.775px 172.469px;" id="elced54h9ejpc" class="animable"></path><g id="elwlj5dx48zkk"><path d="M421.8,180.11,343.15,134.7a2.26,2.26,0,0,0-2.06-.26v0l-.06,0-.12.07-3.18,1.83a2.2,2.2,0,0,1,2.15.23L418.53,182a6.79,6.79,0,0,1,2.73,3.51l3.28-1.87A6.77,6.77,0,0,0,421.8,180.11Z" style="fill: rgb(255, 255, 255); opacity: 0.3; transform-origin: 381.135px 159.906px;" class="animable" id="el2wiy064xnkf"></path></g><g id="elywptu34518"><path d="M421.26,185.51a5.25,5.25,0,0,1,.35,1.83l-.06,21.21a2.17,2.17,0,0,1-.89,2h0l3.24-1.87,0,0,0,0h0a2.2,2.2,0,0,0,.87-2l.06-21.21a5.42,5.42,0,0,0-.35-1.81Z" style="opacity: 0.2; transform-origin: 422.745px 197.105px;" class="animable" id="elo1u9q98uf3g"></path></g><polygon points="409.7 197.19 409.69 200.69 387.43 187.84 387.44 184.33 409.7 197.19" style="fill: rgb(255, 255, 255); transform-origin: 398.565px 192.51px;" id="elrdk0sdqh10g" class="animable"></polygon><polygon points="412.51 191.93 412.5 195.44 387.44 180.97 387.45 177.47 412.51 191.93" style="fill: rgb(255, 255, 255); transform-origin: 399.975px 186.455px;" id="el5455zpgsj6o" class="animable"></polygon><polygon points="398.61 177.04 398.6 180.54 387.46 174.11 387.47 170.61 398.61 177.04" style="fill: rgb(255, 255, 255); transform-origin: 393.035px 175.575px;" id="el7x3yizcv0gi" class="animable"></polygon><path d="M353.12,156.79a2.72,2.72,0,0,1,1.24,2.14v2.37c0,.78-.57,1.1-1.25.71l-2.06-1.19a2.75,2.75,0,0,1-1.23-2.14v-2.37c0-.79.56-1.1,1.24-.71Z" style="fill: rgb(255, 255, 255); transform-origin: 352.09px 158.804px;" id="elxgerpjqnvgm" class="animable"></path><g id="elt356glxii3n"><path d="M352.12,147.73l.3.19v2.85a3.28,3.28,0,0,0-.31-.2c-3.95-2.28-7.17-.45-7.19,4.1a13.83,13.83,0,0,0,1.46,5.83l-2.12.27a18.37,18.37,0,0,1-1.81-7.53C342.46,147.13,346.8,144.66,352.12,147.73Z" style="fill: rgb(255, 255, 255); opacity: 0.4; transform-origin: 347.435px 153.59px;" class="animable" id="elnaka2d8g9id"></path></g><path d="M352.42,147.92c5.18,3.18,9.33,10.46,9.31,16.45s-4.36,8.58-9.67,5.51a20.58,20.58,0,0,1-7.8-9.11l2.12-.27a15.3,15.3,0,0,0,5.68,6.54c4,2.28,7.18.44,7.19-4.1a15.83,15.83,0,0,0-6.83-12.17Z" style="fill: rgb(255, 255, 255); transform-origin: 352.995px 159.549px;" id="elmqgh2bwrwef" class="animable"></path><g id="elihxztc0fxw"><path d="M373.56,160.11l.31.19v2.85a3.28,3.28,0,0,0-.31-.2c-3.95-2.28-7.17-.45-7.18,4.1a13.81,13.81,0,0,0,1.45,5.83l-2.11.27a18.23,18.23,0,0,1-1.82-7.53C363.91,159.51,368.25,157,373.56,160.11Z" style="fill: rgb(255, 255, 255); opacity: 0.4; transform-origin: 368.885px 165.961px;" class="animable" id="el589kfdzarfs"></path></g><path d="M374.57,169.17a2.74,2.74,0,0,1,1.23,2.14v2.36c0,.79-.55,1.11-1.24.72l-2.06-1.19a2.73,2.73,0,0,1-1.23-2.14v-2.37c0-.79.56-1.1,1.25-.71Z" style="fill: rgb(255, 255, 255); transform-origin: 373.535px 171.184px;" id="el4kx52ka3q33" class="animable"></path><path d="M373.87,160.3c5.17,3.18,9.32,10.46,9.3,16.45s-4.35,8.58-9.67,5.51a20.51,20.51,0,0,1-7.79-9.11l2.11-.27a15.32,15.32,0,0,0,5.69,6.54c3.95,2.28,7.17.44,7.19-4.1a15.82,15.82,0,0,0-6.84-12.17Z" style="fill: rgb(255, 255, 255); transform-origin: 374.44px 171.929px;" id="elufnwnr1ytys" class="animable"></path><path d="M346.44,181.29a3.77,3.77,0,0,1,1.72,3v3.29c0,1.09-.77,1.53-1.73,1l-2.86-1.65a3.81,3.81,0,0,1-1.71-3v-3.29c0-1.09.78-1.53,1.72-1Z" style="fill: #8A2BE2; transform-origin: 345.01px 184.11px;" id="eloypqj8qba8c" class="animable"></path><path d="M346.42,190.55a3.76,3.76,0,0,1,1.71,3v3.29c0,1.09-.77,1.53-1.72,1l-2.86-1.65a3.76,3.76,0,0,1-1.71-3v-3.3c0-1.09.77-1.53,1.72-1Z" style="fill: #8A2BE2; transform-origin: 344.985px 193.365px;" id="elrucf39cw0vt" class="animable"></path><path d="M346.39,199.82a3.78,3.78,0,0,1,1.72,3v3.29c0,1.09-.78,1.53-1.73,1l-2.86-1.65a3.77,3.77,0,0,1-1.71-3v-3.29c0-1.08.77-1.52,1.72-1Z" style="fill: #8A2BE2; transform-origin: 344.96px 202.643px;" id="el7n0b8mmh79t" class="animable"></path><polygon points="394.52 229.59 394.51 232.86 351.05 207.76 351.06 204.49 394.52 229.59" style="fill: #8A2BE2; transform-origin: 372.785px 218.675px;" id="elmg8f3p8sk9b" class="animable"></polygon><polygon points="411.85 230.31 411.84 233.59 351.07 198.51 351.08 195.23 411.85 230.31" style="fill: #8A2BE2; transform-origin: 381.46px 214.41px;" id="el3dsek7pmrju" class="animable"></polygon><polygon points="403.83 216.41 403.82 219.68 351.1 189.25 351.11 185.97 403.83 216.41" style="fill: #8A2BE2; transform-origin: 377.465px 202.825px;" id="elr64n0i0yx2j" class="animable"></polygon></g><g id="freepik--Device--inject-70" class="animable" style="transform-origin: 172.914px 182.657px;"><path d="M244.3,71.51c0-8.43-3-14.35-7.81-17.14h0L225.7,48l-.15-.08a11.1,11.1,0,0,0-1.34-.66,2.67,2.67,0,0,0-.26-.09l-.46-.16c-.23-.08-.45-.18-.69-.25s-.52-.12-.77-.18l-.48-.1a1.83,1.83,0,0,0-.25-.06,14.33,14.33,0,0,0-1.62-.19h-.49c-.42,0-.84,0-1.28,0l-.44.05-.8.08c-.25,0-.5,0-.75.07l-.67.15c-.36.06-.72.14-1.09.23-.2,0-.39.07-.59.13-.45.12-.9.26-1.36.41l-.14,0c-.55.18-1.09.39-1.65.62l-.66.3-.63.29c-.81.38-1.62.79-2.45,1.27L127.8,95.38q-1.29.75-2.55,1.62l-.8.58c-.57.41-1.13.83-1.69,1.27l-.91.76c-.51.43-1,.87-1.51,1.32l-.9.84-.57.53c-.19.19-.38.41-.57.61-.6.61-1.2,1.24-1.78,1.89-.18.21-.38.4-.57.61l-.45.55c-.35.41-.69.84-1,1.26s-.46.55-.68.83-.35.48-.52.72-.5.66-.74,1l-.52.69c-.28.4-.54.81-.81,1.22l-.52.77-.21.32c-.48.75-.94,1.5-1.39,2.27l-.08.15-.26.46c-.31.54-.62,1.09-.91,1.64-.14.25-.26.51-.39.77l-.41.8c-.11.24-.24.47-.35.7-.31.63-.59,1.26-.87,1.9l-.15.33-.05.09c-.34.8-.67,1.6-1,2.4-.05.15-.1.3-.16.45s-.2.58-.31.87-.3.8-.43,1.21-.19.62-.29.94-.23.73-.33,1.09-.15.46-.21.69c-.12.41-.2.82-.3,1.23s-.24.91-.34,1.36c0,.16-.08.32-.12.48-.07.33-.1.65-.16,1-.14.71-.27,1.42-.37,2.13,0,.2-.08.4-.1.59-.06.45-.09.89-.13,1.34s-.07.63-.09.94c-.08,1-.13,2-.12,2.95l.34,152.21c0,8.43,3,14.36,7.81,17.15l10.8,6.39a10.61,10.61,0,0,1-.88-.61c4.92,3.43,12,3.31,19.89-1.25L218,269.88c14.76-8.52,26.7-29.19,26.65-46.17Z" style="fill: #8A2BE2; transform-origin: 172.914px 182.657px;" id="elblvp4xgt8f9" class="animable"></path><g id="elmtha0pfd6g"><path d="M244.3,71.51c0-8.43-3-14.35-7.81-17.14h0L225.7,48l-.15-.08a11.1,11.1,0,0,0-1.34-.66,2.67,2.67,0,0,0-.26-.09l-.46-.16c-.23-.08-.45-.18-.69-.25s-.52-.12-.77-.18l-.48-.1a1.83,1.83,0,0,0-.25-.06,14.33,14.33,0,0,0-1.62-.19h-.49c-.42,0-.84,0-1.28,0l-.44.05-.8.08c-.25,0-.5,0-.75.07l-.67.15c-.36.06-.72.14-1.09.23-.2,0-.39.07-.59.13-.45.12-.9.26-1.36.41l-.14,0c-.55.18-1.09.39-1.65.62l-.66.3-.63.29c-.81.38-1.62.79-2.45,1.27L127.8,95.38q-1.29.75-2.55,1.62l-.8.58c-.57.41-1.13.83-1.69,1.27l-.91.76c-.51.43-1,.87-1.51,1.32l-.9.84-.57.53c-.19.19-.38.41-.57.61-.6.61-1.2,1.24-1.78,1.89-.18.21-.38.4-.57.61l-.45.55c-.35.41-.69.84-1,1.26s-.46.55-.68.83-.35.48-.52.72-.5.66-.74,1l-.52.69c-.28.4-.54.81-.81,1.22l-.52.77-.21.32c-.48.75-.94,1.5-1.39,2.27l-.08.15-.26.46c-.31.54-.62,1.09-.91,1.64-.14.25-.26.51-.39.77l-.41.8c-.11.24-.24.47-.35.7-.31.63-.59,1.26-.87,1.9l-.15.33-.05.09c-.34.8-.67,1.6-1,2.4-.05.15-.1.3-.16.45s-.2.58-.31.87-.3.8-.43,1.21-.19.62-.29.94-.23.73-.33,1.09-.15.46-.21.69c-.12.41-.2.82-.3,1.23s-.24.91-.34,1.36c0,.16-.08.32-.12.48-.07.33-.1.65-.16,1-.14.71-.27,1.42-.37,2.13,0,.2-.08.4-.1.59-.06.45-.09.89-.13,1.34s-.07.63-.09.94c-.08,1-.13,2-.12,2.95l.34,152.21c0,8.43,3,14.36,7.81,17.15l10.8,6.39a10.61,10.61,0,0,1-.88-.61c4.92,3.43,12,3.31,19.89-1.25L218,269.88c14.76-8.52,26.7-29.19,26.65-46.17Z" style="fill: rgb(255, 255, 255); opacity: 0.6; transform-origin: 172.914px 182.657px;" class="animable" id="eldz5lgdae8ac"></path></g><g id="eldsdf9z0le7i"><path d="M112.3,300.12,112,147.92l-10.8-6.39.34,152.21c0,8.43,3,14.36,7.81,17.15l10.8,6.39C115.31,314.49,112.33,308.56,112.3,300.12Z" style="opacity: 0.1; transform-origin: 110.675px 229.405px;" class="animable" id="elwsk1sgmwsa"></path></g><g id="elmpojwlg6h8k"><path d="M220.56,54.67a24.11,24.11,0,0,1,2.31-.92l.14,0c.66-.22,1.31-.39,2-.54l1.09-.24c.48-.09.95-.16,1.42-.21l.8-.09a16.6,16.6,0,0,1,1.72,0h.39a15.59,15.59,0,0,1,2,.25l.48.11a13.69,13.69,0,0,1,1.46.43l.46.15a12.78,12.78,0,0,1,1.75.84L225.7,48l-.15-.08a11.1,11.1,0,0,0-1.34-.66,2.67,2.67,0,0,0-.26-.09l-.46-.16c-.23-.08-.45-.18-.69-.25s-.52-.12-.77-.18l-.48-.1a1.83,1.83,0,0,0-.25-.06,14.33,14.33,0,0,0-1.62-.19h-.49c-.42,0-.84,0-1.28,0l-.44.05-.8.08c-.25,0-.5,0-.75.07l-.67.15c-.36.06-.72.14-1.09.23-.2,0-.39.07-.59.13-.45.12-.9.26-1.36.41l-.14,0c-.55.18-1.09.39-1.65.62l-.66.3-.63.29c-.81.38-1.62.79-2.45,1.27L127.8,95.38q-1.29.75-2.55,1.62l-.8.59c-.57.4-1.13.82-1.69,1.26l-.91.76c-.51.43-1,.87-1.51,1.32l-.9.84-.57.53c-.19.19-.38.41-.57.61-.6.61-1.2,1.24-1.78,1.89-.18.21-.38.4-.57.61l-.45.55c-.35.41-.69.84-1,1.26s-.46.55-.68.83-.35.48-.52.72-.5.66-.74,1l-.52.69c-.28.4-.54.81-.81,1.22l-.52.77-.21.32c-.48.75-.94,1.5-1.39,2.27l-.08.15-.26.46c-.31.55-.62,1.09-.91,1.64-.14.25-.26.51-.39.77l-.41.8c-.11.24-.24.47-.35.7-.31.63-.59,1.26-.87,1.9l-.15.33-.05.09c-.34.8-.67,1.6-1,2.4-.05.15-.1.3-.16.45s-.2.58-.31.87-.3.8-.43,1.21-.19.62-.29.94-.23.73-.33,1.09-.15.46-.21.69c-.12.41-.2.82-.3,1.23s-.24.91-.34,1.36c0,.16-.08.32-.12.48-.07.33-.1.65-.16,1-.14.71-.27,1.42-.37,2.13,0,.2-.08.4-.1.59-.06.45-.09.89-.13,1.34s-.07.63-.09.94c-.08,1-.13,2-.12,2.95l10.8,6.39c0-1,0-2,.11-2.95,0-.32.07-.63.1-.95.06-.64.14-1.28.23-1.92s.23-1.42.37-2.13c.09-.49.17-1,.28-1.46s.22-.91.34-1.37c.16-.63.32-1.27.5-1.91.11-.36.23-.73.34-1.1.23-.71.47-1.43.72-2.14.1-.29.2-.59.31-.88.37-1,.76-2,1.19-2.93l.15-.34c.39-.87.79-1.73,1.22-2.59.13-.27.27-.54.41-.8.41-.81.85-1.61,1.3-2.41l.26-.46c.54-.93,1.1-1.84,1.68-2.74l.52-.78c.43-.64.87-1.27,1.32-1.9l.75-1c.39-.52.8-1,1.2-1.54l1-1.27,1-1.15c.58-.65,1.18-1.28,1.78-1.89.38-.39.75-.77,1.14-1.14s.6-.57.9-.84c.5-.46,1-.9,1.51-1.32l.91-.76c.56-.44,1.12-.86,1.69-1.27.27-.19.53-.4.8-.58q1.26-.87,2.55-1.62l78.88-45.54c.83-.48,1.64-.89,2.45-1.27Z" style="fill: rgb(255, 255, 255); opacity: 0.3; transform-origin: 168.879px 97.085px;" class="animable" id="el5rpcxnucv1e"></path></g><path d="M125.75,300.08c0,3.31.73,5,1.1,5.52a2,2,0,0,0,.34,0c.61,0,2.33-.18,5.21-1.84l78.88-45.54c10.65-6.15,20-22.26,19.92-34.49l-.08-39.1-105.5,61.57Z" style="fill: #8A2BE2; transform-origin: 178.41px 245.119px;" id="el8vl0cazc4og" class="animable"></path><path d="M230.86,71.55c0-3.35-.76-5-1.12-5.52h-.45l-.31,0-.44.07-.42.09c-.26.06-.63.16-.9.25l-.13,0c-.27.1-.63.24-1,.43l-.37.17c-.6.28-1.07.52-1.48.76l-78.88,45.54c-.49.29-1,.63-1.61,1l-.6.43c-.39.29-.78.58-1.16.88l-.54.44-.11.1c-.38.31-.74.63-1.1.95l-.67.63-.72.73-.13.13c-.46.46-.91.94-1.34,1.43l-.15.16-.64.72-.81,1c-.32.4-.64.8-.94,1.21l-.59.78c-.35.5-.7,1-1,1.51l-.42.62c-.48.75-.93,1.48-1.32,2.15l-.22.39c-.36.63-.7,1.27-1,1.91l-.32.63c-.34.68-.66,1.36-1,2-.06.13-.11.26-.18.4-.28.66-.57,1.38-.88,2.19l-.24.68c-.2.55-.38,1.1-.55,1.65-.09.28-.18.56-.26.83-.14.48-.26.95-.38,1.45l-.07.27-.18.72-.12.62-.08.44c-.1.51-.19,1-.26,1.52s-.12.88-.16,1.32l-.07.64c-.06.75-.08,1.37-.08,1.92l.21,93.85,105.5-61.57Z" style="fill: rgb(69, 90, 100); transform-origin: 178.315px 153.835px;" id="elvb2yqkujva" class="animable"></path><polygon points="125.61 241.74 125.62 246.22 231.12 184.65 231.1 180.17 125.61 241.74" style="fill: rgb(255, 255, 255); transform-origin: 178.365px 213.195px;" id="elbv2x7vjkhjh" class="animable"></polygon><path d="M214.05,124.46,204,130.27l-10.78,6.23L204,130.27c3.62-8,3.12-16-1.5-18.6-2.58-1.47-6-1-9.32,1a26.74,26.74,0,0,0-9.3,9.8l-2.75,4.76-.47-6.08c0-.51-.42-.71-.93-.45a2.1,2.1,0,0,0-.92,1.4l-.86,5.61-1.58-.9c-2.58-1.47-6-1-9.33.95a26.65,26.65,0,0,0-9.29,9.8c-4.6,8-5.05,16.46-1.39,20.27l-10.07,5.81a2,2,0,0,0-.93,1.61c0,.59.42.83.93.54L158,159l3.61,2.06,18.69,10.64,2.13-3.69.09,1.15c0,.52.44.72.93.45a2.11,2.11,0,0,0,.93-1.49l.37-4.13,14.11-24.44,3.59-6.21,11.66-6.73A2.07,2.07,0,0,0,215,125C215,124.4,214.57,124.16,214.05,124.46Z" style="fill: #8A2BE2; transform-origin: 180.18px 141.255px;" id="elehmqgwiq2em" class="animable"></path><path d="M179.72,120.65c.51-.26.89-.06.93.45l.47,6.08,2.39,30.36,2.89-31.63a2,2,0,0,1,.88-1.46c.48-.28.87-.15.95.32l3.42,18.48.64-5.31a2.06,2.06,0,0,1,.92-1.44L204,130.27l10.06-5.81c.52-.3.94-.06.94.54a2.07,2.07,0,0,1-.93,1.61l-11.66,6.73L194,138.18l-1.33,11a2.05,2.05,0,0,1-.9,1.43c-.47.27-.85.13-.94-.33l-3.27-17.75L184.7,164l-.37,4.13a2.11,2.11,0,0,1-.93,1.49c-.49.27-.89.07-.93-.45l-.09-1.15-3-38.32-5,32.49a2.12,2.12,0,0,1-.91,1.39c-.52.27-.89.07-.93-.44l-2-23-2.27,12.13a2.11,2.11,0,0,1-.91,1.34L158,159l-11.67,6.74c-.51.29-.93,0-.93-.54a2,2,0,0,1,.93-1.61l10.07-5.81,10.26-5.93,3.4-18.13a2.08,2.08,0,0,1,.91-1.35c.52-.26.88-.05.93.44l1.94,22,4.15-27.17.86-5.61A2.1,2.1,0,0,1,179.72,120.65Z" style="fill: rgb(255, 255, 255); transform-origin: 180.2px 145.138px;" id="elyofyftjx4wg" class="animable"></path><polygon points="167.16 191.19 167.19 204.24 163.36 206.45 163.33 196.72 161.38 197.84 161.38 194.53 167.16 191.19" style="fill: rgb(255, 255, 255); transform-origin: 164.285px 198.82px;" id="elrdc45qkrres" class="animable"></polygon><path d="M172.79,187.64c2.69-1.55,4.59-1,4.6,1.44,0,1.28-.28,2.6-1.94,5.28L173.84,197l3.82-2.2v3.41l-9.1,5.26v-2.7l4.1-6.74a4.4,4.4,0,0,0,.89-2.31c0-.62-.38-.8-1.11-.38a4.06,4.06,0,0,0-1.67,2.17h-2.89A11.16,11.16,0,0,1,172.79,187.64Z" style="fill: rgb(255, 255, 255); transform-origin: 172.77px 195.121px;" id="eln51czkix6yf" class="animable"></path><path d="M183.56,181.42c3-1.72,5.15-.47,5.16,3.85a11.21,11.21,0,0,1-5.12,9.79c-3,1.74-5.16.48-5.17-3.85A11.23,11.23,0,0,1,183.56,181.42Zm0,10.12c.74-.43,1.29-1.53,1.28-4s-.56-3-1.3-2.54-1.3,1.53-1.29,4,.57,3,1.31,2.55" style="fill: rgb(255, 255, 255); transform-origin: 183.575px 188.245px;" id="ell4u5xcc5tyl" class="animable"></path><path d="M193.67,184.77c.93-.54,1.73-.19,1.73,1.12a3.79,3.79,0,0,1-1.72,3.13c-.44.25-.76.31-1,.16v.33l-1.4.81v-5.57l1.47-.85v1.75A2.31,2.31,0,0,1,193.67,184.77Zm-.35,3.14a1.31,1.31,0,0,0,.58-1.15c0-.53-.26-.65-.58-.46a1.26,1.26,0,0,0-.57,1.13c0,.53.25.66.57.48" style="fill: rgb(255, 255, 255); transform-origin: 193.34px 187.11px;" id="el0mg5nn677d1" class="animable"></path><path d="M198.24,182.12c.93-.53,1.72-.17,1.72,1.15a3.72,3.72,0,0,1-1.71,3.11c-.39.22-.69.29-.91.17v1.74l-1.47.85v-5.55l1.4-.81v.33A2.52,2.52,0,0,1,198.24,182.12Zm-.34,3.15a1.29,1.29,0,0,0,.58-1.14c0-.53-.26-.66-.59-.47a1.3,1.3,0,0,0-.58,1.15c0,.53.26.65.59.46" style="fill: rgb(255, 255, 255); transform-origin: 197.915px 185.513px;" id="elh6074ycg5dk" class="animable"></path><path d="M205.15,178.13c.81-.46,1.42-.25,1.42,1v2.34l-1.47.85v-2c0-.52-.16-.62-.39-.49a1.08,1.08,0,0,0-.46,1v2l-1.47.85v-2c0-.52-.16-.62-.41-.48a1.08,1.08,0,0,0-.46,1v2l-1.48.85v-4.1l1.4-.8v.37a2.81,2.81,0,0,1,1-1c.47-.27.87-.3,1.12,0A3.25,3.25,0,0,1,205.15,178.13Z" style="fill: rgb(255, 255, 255); transform-origin: 203.5px 181.478px;" id="el1o1nnv3veb9" class="animable"></path><path d="M144.09,247c3.54-2.05,6.42-.4,6.44,3.66a14.07,14.07,0,0,1-6.4,11.08c-3.55,2.05-6.43.41-6.44-3.67A14.08,14.08,0,0,1,144.09,247Z" style="fill: rgb(255, 255, 255); transform-origin: 144.11px 254.371px;" id="elmoldsur6p6d" class="animable"></path><polygon points="221.34 208.35 221.35 211.12 157.49 247.99 157.48 245.23 221.34 208.35" style="fill: rgb(255, 255, 255); transform-origin: 189.415px 228.17px;" id="elyudou3p1s0c" class="animable"></polygon><polygon points="221.41 229.86 221.41 232.63 157.55 269.5 157.54 266.73 221.41 229.86" style="fill: rgb(255, 255, 255); transform-origin: 189.475px 249.68px;" id="elg9k4k2ansgb" class="animable"></polygon><polygon points="191.8 252.14 191.81 254.9 157.56 274.67 157.56 271.91 191.8 252.14" style="fill: rgb(255, 255, 255); transform-origin: 174.685px 263.405px;" id="el0kohq9bqi5bc" class="animable"></polygon><polygon points="182.67 247.04 182.67 249.81 157.53 264.33 157.53 261.56 182.67 247.04" style="fill: rgb(255, 255, 255); transform-origin: 170.1px 255.685px;" id="elh9tlqumb637" class="animable"></polygon><polygon points="214.39 217.55 214.4 220.31 157.5 253.16 157.5 250.4 214.39 217.55" style="fill: rgb(255, 255, 255); transform-origin: 185.95px 235.355px;" id="elfjhz1r2yuq5" class="animable"></polygon><polygon points="196.69 217.41 196.7 220.17 157.47 242.82 157.47 240.05 196.69 217.41" style="fill: rgb(255, 255, 255); transform-origin: 177.085px 230.115px;" id="el13t077q8sb4" class="animable"></polygon><path d="M144.15,268.47c3.54-2.05,6.43-.41,6.44,3.66a14.1,14.1,0,0,1-6.4,11.08c-3.54,2.05-6.43.4-6.44-3.67A14.08,14.08,0,0,1,144.15,268.47Z" style="fill: rgb(255, 255, 255); transform-origin: 144.17px 275.839px;" id="el08yodt4aj4ds" class="animable"></path></g><g id="freepik--Treadmill--inject-70" class="animable" style="transform-origin: 256.66px 347.074px;"><polygon points="303.94 297.61 293.01 291.26 147.36 363.79 158.32 370.12 303.94 297.61" style="fill: rgb(69, 90, 100); transform-origin: 225.65px 330.69px;" id="eljs4s1wq5fhn" class="animable"></polygon><polygon points="374.59 338.67 229.22 411.05 240.98 417.84 386.3 345.47 374.59 338.67" style="fill: rgb(69, 90, 100); transform-origin: 307.76px 378.255px;" id="elkb44pp5t8c" class="animable"></polygon><g id="el3mbfoyjc1ig"><polygon points="303.94 297.61 293.01 291.26 147.36 363.79 158.32 370.12 303.94 297.61" style="fill: rgb(255, 255, 255); opacity: 0.3; transform-origin: 225.65px 330.69px;" class="animable" id="elm11m36n5q3"></polygon></g><polygon points="229.22 411.05 158.32 370.12 147.36 363.79 126.98 361.11 220.28 415.33 240.98 417.84 229.22 411.05" style="fill: rgb(69, 90, 100); transform-origin: 183.98px 389.475px;" id="el0nzvsc82tib" class="animable"></polygon><g id="el4gecaletlp4"><polygon points="229.22 411.05 158.32 370.12 147.36 363.79 126.98 361.11 220.28 415.33 240.98 417.84 229.22 411.05" style="fill: rgb(255, 255, 255); opacity: 0.5; transform-origin: 183.98px 389.475px;" class="animable" id="elt1rfx00baa9"></polygon></g><g id="el057kto6ac708"><polygon points="374.59 338.67 229.22 411.05 240.98 417.84 386.3 345.47 374.59 338.67" style="fill: rgb(255, 255, 255); opacity: 0.3; transform-origin: 307.76px 378.255px;" class="animable" id="elm838o9cbq9n"></polygon></g><polygon points="220.28 415.33 126.98 361.11 127 385.71 127.02 396.55 220.31 450.77 220.28 415.33" style="fill: rgb(69, 90, 100); transform-origin: 173.645px 405.94px;" id="elcyagubz3pvh" class="animable"></polygon><path d="M136,388.47v-8.18a2,2,0,0,1,3-1.74l69.72,40.52a5,5,0,0,1,2.5,4.33v8.18a2,2,0,0,1-3,1.74L138.53,392.8A5,5,0,0,1,136,388.47Z" style="fill: rgb(55, 71, 79); transform-origin: 173.61px 405.935px;" id="elvyq6lkx8cp" class="animable"></path><polygon points="220.28 415.33 220.31 450.77 386.34 354.91 386.3 345.47 240.98 417.84 220.28 415.33" style="fill: rgb(69, 90, 100); transform-origin: 303.31px 398.12px;" id="elejgqj612zr6" class="animable"></polygon><g id="elzaojagchcmc"><polygon points="220.28 415.33 220.31 450.77 386.34 354.91 386.3 345.47 240.98 417.84 220.28 415.33" style="fill: rgb(255, 255, 255); opacity: 0.1; transform-origin: 303.31px 398.12px;" class="animable" id="el3cknwh5ukq"></polygon></g><polygon points="303.94 297.61 303.93 302.08 294.96 302.08 303.94 297.61" style="fill: rgb(69, 90, 100); transform-origin: 299.45px 299.845px;" id="elejndfg1hm2m" class="animable"></polygon><path d="M296.41,301.36,158.32,370.12l70.9,40.93,141.22-70.32-67.38-39.16A7,7,0,0,0,296.41,301.36Z" style="fill: rgb(55, 71, 79); transform-origin: 264.38px 355.835px;" id="el0o5vftx3f62d" class="animable"></path><path d="M222.11,307.19a3,3,0,0,0-3,3v99.69a13.52,13.52,0,0,0,6,2V310.2A3,3,0,0,0,222.11,307.19Z" style="fill: rgb(224, 224, 224); transform-origin: 222.11px 359.535px;" id="els0objdmxi2f" class="animable"></path><g id="el1pnja7c1tsr"><path d="M222.11,307.19a3,3,0,0,0-3,3v99.69a13.52,13.52,0,0,0,6,2V310.2A3,3,0,0,0,222.11,307.19Z" style="opacity: 0.2; transform-origin: 222.11px 359.535px;" class="animable" id="elv0mua6plosa"></path></g><g id="elvm4bnn1bqe"><path d="M222.11,307.19a3,3,0,0,0-3,3v8.63a31.08,31.08,0,0,0,5.37.48l.64,0V310.2A3,3,0,0,0,222.11,307.19Z" style="opacity: 0.3; transform-origin: 222.115px 313.245px;" class="animable" id="elushrqanal6"></path></g><path d="M143.14,264.55a3,3,0,0,0-3,3v97.72a13.68,13.68,0,0,0,6,1.76V267.56A3,3,0,0,0,143.14,264.55Z" style="fill: rgb(224, 224, 224); transform-origin: 143.14px 315.79px;" id="elw8g12a78hgr" class="animable"></path><g id="elp2ylml6bhne"><path d="M143.14,264.55a3,3,0,0,0-3,3v97.72a13.68,13.68,0,0,0,6,1.76V267.56A3,3,0,0,0,143.14,264.55Z" style="opacity: 0.2; transform-origin: 143.14px 315.79px;" class="animable" id="el35sjjopmdzp"></path></g><g id="elueka9lcusws"><path d="M143.14,264.55a3,3,0,0,0-3,3v7.83l6,3.48V267.56A3,3,0,0,0,143.14,264.55Z" style="opacity: 0.3; transform-origin: 143.14px 271.705px;" class="animable" id="elnq8e4v2z20q"></path></g><path d="M165.94,244.24a2.07,2.07,0,0,0-1.78-.86l-19.32,4.4a2,2,0,0,1,1.85.86,6.33,6.33,0,0,1,1,5.67,2,2,0,0,1-1.4,1.48l19.23-4.4a2,2,0,0,0,1.42-1.48A6.4,6.4,0,0,0,165.94,244.24Z" style="fill: rgb(69, 90, 100); transform-origin: 156.025px 249.584px;" id="elrpjlh4shu1o" class="animable"></path><path d="M144.71,247.81v0l.12-.05Z" style="fill: rgb(69, 90, 100); transform-origin: 144.77px 247.785px;" id="elty77ldcdc2" class="animable"></path><polygon points="146.28 255.8 146.29 255.8 146.28 255.8 146.28 255.8" style="fill: rgb(69, 90, 100); transform-origin: 146.285px 255.8px;" id="elkd8f387e6wo" class="animable"></polygon><path d="M147.73,254.31a6.33,6.33,0,0,0-1-5.67,2,2,0,0,0-1.85-.86h0l-.12.05a2.09,2.09,0,0,0-1.3,1.43,6.35,6.35,0,0,0,1,5.67,2,2,0,0,0,1.83.87h.05A2,2,0,0,0,147.73,254.31Z" style="fill: rgb(38, 50, 56); transform-origin: 145.596px 251.789px;" id="elrcuzwka52kh" class="animable"></path><polygon points="240.12 311 240.13 311 240.12 311 240.12 311" style="fill: rgb(69, 90, 100); transform-origin: 240.125px 311px;" id="el23mu89b50mv" class="animable"></polygon><path d="M259.77,299.45a2.05,2.05,0,0,0-1.77-.87L238.68,303a2,2,0,0,1,1.85.87,6.34,6.34,0,0,1,1,5.66,2.06,2.06,0,0,1-1.41,1.48l19.23-4.39a2.07,2.07,0,0,0,1.42-1.48A6.35,6.35,0,0,0,259.77,299.45Z" style="fill: rgb(69, 90, 100); transform-origin: 249.865px 304.794px;" id="elm5ww73hx55" class="animable"></path><path d="M238.54,303v0a.56.56,0,0,1,.12,0Z" style="fill: rgb(69, 90, 100); transform-origin: 238.6px 302.998px;" id="el976mv5t7cl5" class="animable"></path><path d="M241.57,309.51a6.34,6.34,0,0,0-1-5.66,2,2,0,0,0-1.85-.87h0a.56.56,0,0,0-.12,0,2.08,2.08,0,0,0-1.29,1.44,6.31,6.31,0,0,0,1,5.66,2,2,0,0,0,1.83.87h0A2.06,2.06,0,0,0,241.57,309.51Z" style="fill: rgb(38, 50, 56); transform-origin: 239.438px 306.964px;" id="elvfhe4gbyha" class="animable"></path><g id="elyu2u0659si"><g style="opacity: 0.4; transform-origin: 155.96px 249.589px;" class="animable" id="elp9vr0e0vt8"><path d="M165.94,244.24a2.07,2.07,0,0,0-1.78-.86l-19.32,4.4a2,2,0,0,1,1.85.86,6.33,6.33,0,0,1,1,5.67,2,2,0,0,1-1.4,1.48l19.23-4.4a2,2,0,0,0,1.42-1.48A6.4,6.4,0,0,0,165.94,244.24Z" style="fill: rgb(255, 255, 255); transform-origin: 156.025px 249.584px;" id="elb6ixnxflpc6" class="animable"></path><path d="M144.71,247.81v0l.12-.05Z" style="fill: rgb(255, 255, 255); transform-origin: 144.77px 247.785px;" id="ell83yyhzjkja" class="animable"></path><polygon points="146.28 255.8 146.29 255.8 146.28 255.8 146.28 255.8" style="fill: rgb(255, 255, 255); transform-origin: 146.285px 255.8px;" id="elkybhgw5vut" class="animable"></polygon></g></g><g id="eldab0854ohu7"><g style="opacity: 0.4; transform-origin: 249.795px 304.794px;" class="animable" id="elp4ysy4yj3p8"><polygon points="240.12 311 240.13 311 240.12 311 240.12 311" style="fill: rgb(255, 255, 255); transform-origin: 240.125px 311px;" id="el4c7sb98p8ya" class="animable"></polygon><path d="M259.77,299.45a2.05,2.05,0,0,0-1.77-.87L238.68,303a2,2,0,0,1,1.85.87,6.34,6.34,0,0,1,1,5.66,2.06,2.06,0,0,1-1.41,1.48l19.23-4.39a2.07,2.07,0,0,0,1.42-1.48A6.35,6.35,0,0,0,259.77,299.45Z" style="fill: rgb(255, 255, 255); transform-origin: 249.865px 304.794px;" id="elp0ilhyw5t2n" class="animable"></path><path d="M238.54,303v0a.56.56,0,0,1,.12,0Z" style="fill: rgb(255, 255, 255); transform-origin: 238.6px 302.998px;" id="elps4ooyivvn" class="animable"></path></g></g><path d="M238.28,304.52h0l-7.68,1.92A24.93,24.93,0,0,1,212,303.83l-70.36-40.62a4,4,0,0,1,1-7.36l3.08-.76c1.06-.86.94-5.53-1.31-5.87l-3.23.79a10,10,0,0,0-2.58,18.41L209,309a30.93,30.93,0,0,0,15.5,4.18,31.33,31.33,0,0,0,7.6-1l7.52-1.87C240.65,309.54,240.53,304.87,238.28,304.52Z" style="fill: rgb(224, 224, 224); transform-origin: 186.893px 281.2px;" id="elurkixsxpk8r" class="animable"></path><polygon points="149.91 275.38 149.91 254.53 195.03 280.59 195.03 301.43 149.91 275.38" style="fill: rgb(69, 90, 100); transform-origin: 172.47px 277.98px;" id="elqd6bekfa8ud" class="animable"></polygon><polygon points="195.03 280.59 222.11 293.8 222.11 301.43 195.03 301.43 195.03 280.59" style="fill: rgb(69, 90, 100); transform-origin: 208.57px 291.01px;" id="elvexno2sfge" class="animable"></polygon><polygon points="149.91 254.53 195.03 280.59 222.11 293.8 176.98 267.75 149.91 254.53" style="fill: rgb(69, 90, 100); transform-origin: 186.01px 274.165px;" id="elva569fequn" class="animable"></polygon><g id="elf4yeuzpljrc"><polygon points="195.03 280.59 222.11 293.8 222.11 301.43 195.03 301.43 195.03 280.59" style="fill: rgb(255, 255, 255); opacity: 0.1; transform-origin: 208.57px 291.01px;" class="animable" id="el9hj9vt5eyub"></polygon></g><g id="elm91ry8cp8f7"><polygon points="149.91 254.53 195.03 280.59 222.11 293.8 176.98 267.75 149.91 254.53" style="fill: rgb(255, 255, 255); opacity: 0.3; transform-origin: 186.01px 274.165px;" class="animable" id="elt6zhpd0l76"></polygon></g></g><g id="freepik--Character--inject-70" class="animable" style="transform-origin: 283.359px 274.749px;"><g id="el32fdl8b2m6a"><path d="M300.55,337.2c17.27,10,17.36,26.13.21,36.1s-45.06,10-62.33,0-17.35-26.13-.2-36.1S283.29,327.23,300.55,337.2Z" style="opacity: 0.2; transform-origin: 269.492px 355.256px;" class="animable" id="el2nzg0yvosvt"></path></g><path d="M267.87,224.53,271.66,208h0A29.76,29.76,0,0,0,257.49,214l-19.84,15.6,13.65,4.21Z" style="fill: rgb(255, 168, 167); transform-origin: 254.655px 220.905px;" id="el12hhkcumtygc" class="animable"></path><path d="M277.14,298.86l2.77,6.25a9,9,0,0,0,9.28,5.31l23.4-2.67a15.93,15.93,0,0,1,5.87.43l5.12,1.36v-12l-1.4.41a15.83,15.83,0,0,1-8.28.2l-8.53-2.1a23.36,23.36,0,0,0-12.25.3h0l-.87-7.08Z" style="fill: rgb(242, 143, 143); transform-origin: 300.36px 299.875px;" id="ela348na51wp" class="animable"></path><path d="M340.73,314.66a11.12,11.12,0,0,0-3.39-7.66c-1.54-1.46-3.48-2.44-4.94-4-1.69-1.81-2.39-3.8-3.83-5.85a2.27,2.27,0,0,0-1-.77,2.17,2.17,0,0,0-.44,0,3.8,3.8,0,0,0-1.46.42h0a2.27,2.27,0,0,1,1.45.9c1.45,2,2.47,4.4,4.17,6.17,1.45,1.51,3.39,2.47,4.93,3.9a10.74,10.74,0,0,1,3.39,7.48c.08,2.81-.95,7.66-3,7.66a2.53,2.53,0,0,0,1.9-.29C340.29,320.85,340.78,316.75,340.73,314.66Z" style="fill: rgb(235, 235, 235); transform-origin: 333.202px 309.675px;" id="elhdt8tbf1se" class="animable"></path><path d="M328.57,297.15c1.44,2.05,2.14,4,3.83,5.85,1.46,1.56,3.4,2.54,4.94,4a11.12,11.12,0,0,1,3.39,7.66c0,2.09-.44,6.19-2.15,7.93,2.18-1.31,2.78-5.94,2.71-8.2a10.78,10.78,0,0,0-3.38-7.48c-1.54-1.43-3.49-2.39-4.94-3.91-1.7-1.77-2.39-3.72-3.84-5.71a2.27,2.27,0,0,0-1.53-.91A2.27,2.27,0,0,1,328.57,297.15Z" style="fill: rgb(69, 90, 100); transform-origin: 334.448px 309.485px;" id="elc085h9z0b9" class="animable"></path><path d="M321.66,297.64a3,3,0,0,1-1.58.23s-1.58-.16-2.1-.26c-1-.19-1.1.94-1.1.94a8.49,8.49,0,0,0,1.79,0,1.76,1.76,0,0,0,1.21.78,7.27,7.27,0,0,1,1.46.45,1.3,1.3,0,0,1,.76,1.22c-.09.56-.64.89-1,1.36a1.89,1.89,0,0,0-.08,1.83,1.51,1.51,0,0,0-1.84.53,4.48,4.48,0,0,0-.66,2,5,5,0,0,0-.1,1.44,1.79,1.79,0,0,0,.65,1.26,1.09,1.09,0,0,0,1.34,0c1.28,2.08,7.13,2.87,10.06,6.8s3.57,6.72,6.17,6.72c2,0,3-4.85,3-7.66a10.74,10.74,0,0,0-3.39-7.48c-1.54-1.43-3.48-2.39-4.93-3.9-1.7-1.77-2.72-4.17-4.17-6.17a2.27,2.27,0,0,0-1.45-.9,2.33,2.33,0,0,0-.53,0A9.67,9.67,0,0,0,321.66,297.64Z" style="fill: #8A2BE2; transform-origin: 328.26px 309.877px;" id="eldfram0robqe" class="animable"></path><path d="M335.88,322.21l.66-1.81a.69.69,0,0,1,.56-.44c2-.24,2.63-.54,3.5-1.46a8,8,0,0,1-1.06,3.18,2.6,2.6,0,0,1-3.47,1A.37.37,0,0,1,335.88,322.21Z" style="fill: rgb(69, 90, 100); transform-origin: 338.227px 320.741px;" id="el1t3iyko2zgw" class="animable"></path><path d="M323.22,305.37a.52.52,0,0,1-.17.38,3.93,3.93,0,0,0-.95,4.74.5.5,0,0,1-.89.45,5,5,0,0,1-.43-3.18,4.91,4.91,0,0,1,1.61-2.77.51.51,0,0,1,.71.05A.5.5,0,0,1,323.22,305.37Z" style="fill: rgb(55, 71, 79); transform-origin: 321.954px 308.026px;" id="elsf6eq7oo9wp" class="animable"></path><path d="M326.29,306.78a.51.51,0,0,1-.15.36,5.18,5.18,0,0,0-1.39,4.89.5.5,0,1,1-1,.24,6.23,6.23,0,0,1,1.66-5.85.5.5,0,0,1,.71,0A.49.49,0,0,1,326.29,306.78Z" style="fill: rgb(55, 71, 79); transform-origin: 324.936px 309.468px;" id="elm6xupdmbtia" class="animable"></path><path d="M329,309a.49.49,0,0,1-.19.39,4.21,4.21,0,0,0-1.49,3.89.51.51,0,0,1-.41.58.51.51,0,0,1-.58-.41,5.2,5.2,0,0,1,1.86-4.85.5.5,0,0,1,.7.08A.5.5,0,0,1,329,309Z" style="fill: rgb(55, 71, 79); transform-origin: 327.633px 311.179px;" id="el5jy4k2qhjn4" class="animable"></path><path d="M331.23,311.15a.51.51,0,0,1-.17.37,4.15,4.15,0,0,0-1.31,3.53.5.5,0,0,1-.43.56.49.49,0,0,1-.56-.43,5.14,5.14,0,0,1,1.63-4.4.5.5,0,0,1,.71,0A.55.55,0,0,1,331.23,311.15Z" style="fill: rgb(55, 71, 79); transform-origin: 329.977px 313.124px;" id="el44m5kea6v56" class="animable"></path><path d="M267,256.06c-.75,10.62,2.09,23,3,26.66l-1.57,3.76c-.39,9.65,13.83,14.92,20.35,11.16,10.22-16.34,15.4-25.2,13.39-35.48Z" style="fill: rgb(38, 50, 56); transform-origin: 284.736px 277.46px;" id="elrqsxdn8kx6g" class="animable"></path><g id="elarv3gtysnc"><path d="M270.85,281.08l6.29-12.52c-5.26-1.57-9.27-7.84-9.27-7.84.81,5.33,5.89,8.71,5.89,8.71A18.58,18.58,0,0,0,270.85,281.08Z" style="opacity: 0.3; transform-origin: 272.505px 270.9px;" class="animable" id="elvu9pzg6mn9"></path></g><path d="M289,294.08c-1.34-6-10.45-12.53-18.22-10.44l-7.26,16.05a25.37,25.37,0,0,0-2.18,8.56L258.45,347a37.81,37.81,0,0,1-1.46,8l-.09.3L267,358h0a37.54,37.54,0,0,1,2.48-13.09l7.72-20.14a30.9,30.9,0,0,0,2-12.3l-.12-3.17Z" style="fill: rgb(255, 168, 167); transform-origin: 272.95px 320.621px;" id="ela30mldzsnf4" class="animable"></path><path d="M251.22,375a11.12,11.12,0,0,0,7.65-3.39c1.47-1.54,2.45-3.48,4-4.93,1.81-1.7,3.81-2.4,5.85-3.84a2.27,2.27,0,0,0,.77-1,2.12,2.12,0,0,0,0-.44,3.86,3.86,0,0,0-.41-1.46h0a2.23,2.23,0,0,1-.9,1.45c-2,1.45-4.39,2.47-6.16,4.17-1.52,1.45-2.48,3.4-3.91,4.93a10.74,10.74,0,0,1-7.48,3.39c-2.8.08-7.66-.94-7.66-3a2.53,2.53,0,0,0,.29,1.9C245,374.52,249.12,375,251.22,375Z" style="fill: rgb(235, 235, 235); transform-origin: 256.2px 367.47px;" id="elvuv0drlntw" class="animable"></path><path d="M268.72,362.8c-2,1.44-4,2.14-5.85,3.84-1.55,1.45-2.53,3.39-4,4.93a11.12,11.12,0,0,1-7.65,3.39c-2.1.06-6.19-.44-7.94-2.15,1.31,2.18,5.95,2.78,8.2,2.71a10.73,10.73,0,0,0,7.48-3.38c1.43-1.54,2.39-3.48,3.91-4.94,1.77-1.69,3.72-2.39,5.72-3.84a2.2,2.2,0,0,0,.9-1.53A2.27,2.27,0,0,1,268.72,362.8Z" style="fill: rgb(69, 90, 100); transform-origin: 256.385px 368.678px;" id="elkdb75696gv" class="animable"></path><path d="M268.24,355.89a2.92,2.92,0,0,1-.23-1.57s.15-1.59.25-2.1c.19-1-.58-1.05-.58-1.05s-.15.79-.28,1.72a1.94,1.94,0,0,0-.85,1.22,7.27,7.27,0,0,1-.45,1.46,1.29,1.29,0,0,1-1.22.76c-.55-.08-.89-.64-1.35-1a1.91,1.91,0,0,0-1.84-.08,1.48,1.48,0,0,0-.53-1.83,4.45,4.45,0,0,0-2-.67,5.45,5.45,0,0,0-1.45-.1,1.75,1.75,0,0,0-1.25.65,1.08,1.08,0,0,0,0,1.34c-2.09,1.28-2.88,7.13-6.81,10.06s-6.72,3.58-6.72,6.17c0,2,4.86,3,7.66,3a10.74,10.74,0,0,0,7.48-3.39c1.43-1.53,2.39-3.48,3.91-4.93,1.77-1.7,4.16-2.72,6.16-4.17a2.37,2.37,0,0,0,.94-2A10.09,10.09,0,0,0,268.24,355.89Z" style="fill: #8A2BE2; transform-origin: 256.006px 362.52px;" id="elk7xo8pjhgx" class="animable"></path><path d="M243.66,370.11l1.81.66a.68.68,0,0,1,.45.57c.23,2,.53,2.63,1.45,3.49a7.89,7.89,0,0,1-3.17-1.05,2.61,2.61,0,0,1-1-3.48A.38.38,0,0,1,243.66,370.11Z" style="fill: rgb(69, 90, 100); transform-origin: 245.133px 372.46px;" id="el3gt6g0vltls" class="animable"></path><path d="M260.51,357.46a.49.49,0,0,1-.38-.18,4,4,0,0,0-2.21-1.29,3.92,3.92,0,0,0-2.54.35.5.5,0,0,1-.45-.9,4.94,4.94,0,0,1,6,1.19.5.5,0,0,1-.05.7A.5.5,0,0,1,260.51,357.46Z" style="fill: rgb(55, 71, 79); transform-origin: 257.852px 356.181px;" id="el37ns5yt9r59" class="animable"></path><path d="M259.09,360.52a.51.51,0,0,1-.36-.15,5.17,5.17,0,0,0-4.88-1.39.5.5,0,0,1-.61-.37.49.49,0,0,1,.36-.6,6.21,6.21,0,0,1,5.85,1.66.5.5,0,0,1-.36.85Z" style="fill: rgb(55, 71, 79); transform-origin: 256.409px 359.18px;" id="el3ajpaxemkrp" class="animable"></path><path d="M256.91,363.19a.53.53,0,0,1-.4-.19,4.2,4.2,0,0,0-3.89-1.5.5.5,0,0,1-.16-1,5.19,5.19,0,0,1,4.84,1.86.5.5,0,0,1-.39.82Z" style="fill: rgb(55, 71, 79); transform-origin: 254.726px 361.813px;" id="elwfzlnvckxb" class="animable"></path><path d="M254.73,365.46a.48.48,0,0,1-.37-.17,4.17,4.17,0,0,0-3.54-1.3.52.52,0,0,1-.56-.44.5.5,0,0,1,.44-.56,5.15,5.15,0,0,1,4.4,1.63.51.51,0,0,1-.37.84Z" style="fill: rgb(55, 71, 79); transform-origin: 252.739px 364.207px;" id="elzo4auddkmxj" class="animable"></path><path d="M293.5,207.13a115.8,115.8,0,0,0-16.45-.12,16.67,16.67,0,0,0-7.09,1.7,12.51,12.51,0,0,0-5.52,8,37.08,37.08,0,0,0-.62,9.93c.29,10.86,1.1,20.13,2.27,30.93,10.79,6.23,25,9.18,37,5.76.17-14-.52-28.81-3.34-42.53C298.75,215.84,297.3,210.48,293.5,207.13Z" style="fill: rgb(69, 90, 100); transform-origin: 283.419px 235.774px;" id="el5n1xukzpqzl" class="animable"></path><g id="el2yf5wqq1ry4"><path d="M293.5,207.13a115.8,115.8,0,0,0-16.45-.12,16.67,16.67,0,0,0-7.09,1.7,12.51,12.51,0,0,0-5.52,8,37.08,37.08,0,0,0-.62,9.93c.29,10.86,1.1,20.13,2.27,30.93,10.79,6.23,25,9.18,37,5.76.17-14-.52-28.81-3.34-42.53C298.75,215.84,297.3,210.48,293.5,207.13Z" style="fill: rgb(255, 255, 255); opacity: 0.3; transform-origin: 283.419px 235.774px;" class="animable" id="el52w0p8bjuf7"></path></g><path d="M326.11,235a9,9,0,0,0-3.32-7.84l-19.9-16.07a18.58,18.58,0,0,0-9.39-4l-1.95-.15c-1.78,1.65-2.56,13.4,5.46,18.17l17.3,10.1-.17,22.23-5.92,6.76a1,1,0,0,0,.34,1.59,2,2,0,0,0,2.11-.26l1.92-1.57c-1.19,2.24-2.23,4.79-3.42,7a2.43,2.43,0,0,0-.42,1.48,1.52,1.52,0,0,0,.76,1.06,3.15,3.15,0,0,0,1.27.4,8,8,0,0,0,4.55-.81,11.28,11.28,0,0,0,3.63-2.92,14.3,14.3,0,0,0,3.26-8.08A251.51,251.51,0,0,0,326.11,235Z" style="fill: rgb(255, 168, 167); transform-origin: 308.264px 240.447px;" id="el7qnjbnyk7k9" class="animable"></path><path d="M273.47,202.88v1.8a13.23,13.23,0,0,1-.72,3.87,2.49,2.49,0,0,0,0,1.62,3.18,3.18,0,0,0,2.07,1.83,6.15,6.15,0,0,0,2.8.09,12,12,0,0,0,7.12-4.05l-.41-12.31Z" style="fill: rgb(255, 168, 167); transform-origin: 278.677px 203.97px;" id="eloo6367mx3o" class="animable"></path><g id="elzix13x2fi0n"><path d="M282.15,201.08a13.32,13.32,0,0,0,1.66-5l-10.34,6.79v1.8a10.3,10.3,0,0,1-.15,1.57,17.84,17.84,0,0,0,4.23-1.29A10.49,10.49,0,0,0,282.15,201.08Z" style="opacity: 0.2; transform-origin: 278.565px 201.16px;" class="animable" id="eldv2b0w9mj7a"></path></g><path d="M262,182.91a6.46,6.46,0,0,1-5.84-3.29.88.88,0,0,1,1-1.27,7.07,7.07,0,0,0,2.47,0,11.65,11.65,0,0,1-2.3-8.71,1.1,1.1,0,0,1,1.57-.82,21.62,21.62,0,0,0,10.94,2.21c2-.14,4-.57,6-.72a11,11,0,0,1,5.9.9A5.61,5.61,0,0,1,285,176a2.76,2.76,0,0,1,2-1.16,3.06,3.06,0,0,1,2.33.69l-3.46,1.92a3,3,0,0,1,3.28,1.62,7.88,7.88,0,0,1,.64,3.7,30.17,30.17,0,0,1-.22,5,9.77,9.77,0,0,1-1.91,4.61,7.31,7.31,0,0,1-3.46,2.34,9.38,9.38,0,0,1-5.62-.18,22.42,22.42,0,0,1-5.09-2.54A79.84,79.84,0,0,1,262,182.91Z" style="fill: rgb(38, 50, 56); transform-origin: 272.933px 181.887px;" id="el7ppalrrbpsm" class="animable"></path><path d="M261.78,179.56A38.67,38.67,0,0,0,264,200.22a7.33,7.33,0,0,0,2.81,3.88c1.48.85,3.32.67,5,.42a25.42,25.42,0,0,0,7.91-2.23,10.8,10.8,0,0,0,5.48-5.9,4.73,4.73,0,0,0,4.79-1.88,8.93,8.93,0,0,0,1.56-5.24c0-1.18-.22-2.58-1.28-3.1a3,3,0,0,0-3,.75,9.09,9.09,0,0,0-3,4.44c-.78-2.89-2-5.68-2.78-8.56a4.86,4.86,0,0,0-1.68-3c-1.21-.78-2.79-.33-4.19,0A27.5,27.5,0,0,1,261.78,179.56Z" style="fill: rgb(255, 168, 167); transform-origin: 276.404px 192.048px;" id="el4ufy2nqba09" class="animable"></path><polygon points="270.19 188.32 266.82 194.01 270.84 194.76 270.19 188.32" style="fill: rgb(242, 143, 143); transform-origin: 268.83px 191.54px;" id="el5b20dr76iuk" class="animable"></polygon><path d="M274.72,196.72l-3.06,1.49a2,2,0,0,0,2.32.66A1.79,1.79,0,0,0,274.72,196.72Z" style="fill: rgb(242, 143, 143); transform-origin: 273.246px 197.863px;" id="eltm2igyo88rg" class="animable"></path><g id="elf475lcfbhv6"><path d="M274.72,196.72l-3.06,1.49a2,2,0,0,0,2.32.66A1.79,1.79,0,0,0,274.72,196.72Z" style="opacity: 0.3; transform-origin: 273.246px 197.863px;" class="animable" id="elpm206l3uv0c"></path></g><path d="M272.92,199a1.88,1.88,0,0,0,1.06-.1,1.63,1.63,0,0,0,.82-1.61,1.87,1.87,0,0,0-1.2.42A1.89,1.89,0,0,0,272.92,199Z" style="fill: rgb(242, 143, 143); transform-origin: 273.866px 198.162px;" id="el8rfwlgpzrwf" class="animable"></path><path d="M276,188.55a1.16,1.16,0,1,1-1.26-1A1.14,1.14,0,0,1,276,188.55Z" style="fill: rgb(38, 50, 56); transform-origin: 274.85px 188.704px;" id="el190thfpcvzmj" class="animable"></path><path d="M266.33,189.15a1.16,1.16,0,1,1-2.3.23,1.16,1.16,0,0,1,2.3-.23Z" style="fill: rgb(38, 50, 56); transform-origin: 265.19px 189.364px;" id="eluoveeooq2v" class="animable"></path><path d="M264.75,184.69l-2.38,2a1.66,1.66,0,0,1,.32-1.86A1.94,1.94,0,0,1,264.75,184.69Z" style="fill: rgb(38, 50, 56); transform-origin: 263.483px 185.574px;" id="elhs9mtykio0t" class="animable"></path><path d="M274.58,183.55l2.73,1.51a1.64,1.64,0,0,0-.68-1.75A2,2,0,0,0,274.58,183.55Z" style="fill: rgb(38, 50, 56); transform-origin: 275.968px 184.096px;" id="elj0zz3yz1wgn" class="animable"></path><path d="M275.34,251.08c0-.28,0-.55-.07-.82a12.1,12.1,0,0,0-8.65-9.89l-14.88-9-10-5-4.12,3.25a6,6,0,0,0-2,2.81h0a6,6,0,0,0,3.68,7.51l24,8.46a10.52,10.52,0,0,1,2.84,6,9.77,9.77,0,0,0,.39,1.95,3.82,3.82,0,0,0,4,2.23,5.26,5.26,0,0,0,3.85-2.73A8.61,8.61,0,0,0,275.34,251.08Z" style="fill: rgb(255, 168, 167); transform-origin: 255.349px 242.492px;" id="elyj7p919medn" class="animable"></path><path d="M267.32,240.37v-1.45h-1.06v.53L264,238.13a1.54,1.54,0,0,0-1.55,0l-3.77,2.18v-.63l-1,.09v1.43a.51.51,0,0,0,.26.44l3.1,1.8a1.58,1.58,0,0,0,1.55,0l4.55-2.63a.49.49,0,0,0,.25-.42h0Z" style="fill: #8A2BE2; transform-origin: 262.535px 240.782px;" id="elc5hlx2zmcdc" class="animable"></path><path d="M262.41,236.94l-3.85,2.23a.43.43,0,0,0,0,.76l2.64,1.52a1.3,1.3,0,0,0,1.32,0l3.86-2.23a.44.44,0,0,0,0-.76l-2.65-1.52A1.3,1.3,0,0,0,262.41,236.94Z" style="fill: #8A2BE2; transform-origin: 262.465px 239.195px;" id="eloub5uq7rbvs" class="animable"></path><g id="ellwmwgwjxx1"><path d="M267.32,240.37v-1.45h-1.06v.53L264,238.13a1.54,1.54,0,0,0-1.55,0l-3.77,2.18v-.63l-1,.09v1.43a.51.51,0,0,0,.26.44l3.1,1.8a1.58,1.58,0,0,0,1.55,0l4.55-2.63a.49.49,0,0,0,.25-.42h0Z" style="opacity: 0.3; transform-origin: 262.535px 240.782px;" class="animable" id="el7t5yyriclg4"></path></g><path d="M262.4,236.7l-4.53,2.62a.51.51,0,0,0,0,.89L261,242a1.58,1.58,0,0,0,1.55,0l4.55-2.63a.52.52,0,0,0,0-.89L264,236.7A1.54,1.54,0,0,0,262.4,236.7Z" style="fill: #8A2BE2; transform-origin: 262.48px 239.34px;" id="el5hwop3tzh0u" class="animable"></path><g id="elhref6jy6meq"><path d="M262.41,236.94l-3.85,2.23a.43.43,0,0,0,0,.76l2.64,1.52a1.3,1.3,0,0,0,1.32,0l3.86-2.23a.44.44,0,0,0,0-.76l-2.65-1.52A1.3,1.3,0,0,0,262.41,236.94Z" style="fill: rgb(255, 255, 255); opacity: 0.5; transform-origin: 262.465px 239.195px;" class="animable" id="elrknx9djph6"></path></g><path d="M260.7,247.46c-.61-.57-.94-3.68.27-4.69l-3.1-1.79c-1,1.27-.75,4-.19,5.38a1.18,1.18,0,0,0,.73.67c.6.2,1.61.55,2,.68a.86.86,0,0,0,.73-.07Z" style="fill: rgb(69, 90, 100); transform-origin: 259.165px 244.37px;" id="elce6gzt9j45j" class="animable"></path></g><defs>     <filter id="active" height="200%">         <feMorphology in="SourceAlpha" result="DILATED" operator="dilate" radius="2"></feMorphology>                <feFlood flood-color="#32DFEC" flood-opacity="1" result="PINK"></feFlood>        <feComposite in="PINK" in2="DILATED" operator="in" result="OUTLINE"></feComposite>        <feMerge>            <feMergeNode in="OUTLINE"></feMergeNode>            <feMergeNode in="SourceGraphic"></feMergeNode>        </feMerge>    </filter>    <filter id="hover" height="200%">        <feMorphology in="SourceAlpha" result="DILATED" operator="dilate" radius="2"></feMorphology>                <feFlood flood-color="#ff0000" flood-opacity="0.5" result="PINK"></feFlood>        <feComposite in="PINK" in2="DILATED" operator="in" result="OUTLINE"></feComposite>        <feMerge>            <feMergeNode in="OUTLINE"></feMergeNode>            <feMergeNode in="SourceGraphic"></feMergeNode>        </feMerge>            <feColorMatrix type="matrix" values="0   0   0   0   0                0   1   0   0   0                0   0   0   0   0                0   0   0   1   0 "></feColorMatrix>    </filter></defs></svg>